<svg width="93" height="45" viewBox="0 0 93 45" fill="none" xmlns="http://www.w3.org/2000/svg">
<path d="M3.89279 27.3907C4.15891 27.3408 4.4583 27.3076 4.79095 27.3076C4.84085 25.5611 5.8388 22.6671 6.90329 19.6732C5.90533 19.5235 5.05707 19.5235 4.54146 19.8728C4.17554 18.4257 5.55605 18.143 7.45216 18.1763C8.43349 15.3986 9.38155 12.6875 9.58114 10.8745C8.00104 10.7747 6.6039 10.9411 5.72237 11.939C5.43962 12.2384 4.67452 8.46282 8.1341 7.83078C10.945 7.31517 16.9328 9.61047 18.8122 6.96588C19.095 6.58333 19.3278 10.0429 17.4484 10.9743C16.2508 11.5565 14.6707 11.49 13.0241 11.2904C12.7912 12.8871 11.9263 15.5317 11.0282 18.4091C12.9908 18.5422 14.7206 18.5255 15.0865 17.5941C15.6687 21.0703 13.1904 20.9539 10.4294 20.3884C9.6643 22.9498 8.9491 25.5445 8.68298 27.6568C11.0947 27.9396 13.5064 28.0394 14.5709 26.5258C14.8537 26.1433 15.0865 29.6029 13.207 30.5177C9.91379 32.1476 3.84289 28.8211 1.48106 31.4823C1.1983 31.7817 0.433204 28.0061 3.89279 27.3907ZM17.9141 17.1617C17.8974 17.0951 21.5899 16.7625 21.5233 18.8915C21.4735 20.2553 18.28 27.241 18.9453 29.4864C20.5753 27.4074 24.9164 17.1617 24.9164 17.1617C24.8998 17.0951 28.5922 16.7625 28.509 18.8915C28.4591 20.272 25.6649 25.8439 25.9476 29.5862C27.2283 28.239 28.7752 24.5299 29.0579 23.8313C29.0912 23.7648 29.1577 23.7316 29.2242 23.7316C29.3573 23.7316 29.4405 23.848 29.4072 23.9644C29.008 25.1952 27.3448 30.2682 26.4799 30.7838C25.4819 31.3992 22.7708 30.368 22.5213 29.2369C22.039 27.1412 24.0681 22.1515 24.7501 19.141C23.4195 22.6172 20.3424 30.4179 19.2779 30.8836C18.2966 31.2994 15.6354 30.4511 15.4192 29.1205C15.02 26.7088 18.4297 19.0911 17.9141 17.1617ZM25.3156 38.9171C24.6336 34.7257 30.9873 20.6213 30.322 17.1284C30.3054 17.0619 34.1475 17.1284 33.9146 19.2407C33.6984 21.2533 30.8376 29.187 29.4904 35.0916C31.9021 26.1433 36.5426 17.6773 37.2578 17.2615C37.9065 16.8789 39.9024 17.4444 40.7174 18.8748C41.8151 20.8042 39.4866 30.1185 35.6278 30.9002C34.7629 31.0832 32.7171 29.8025 32.3013 29.2868C30.8709 32.9626 29.5403 37.0709 28.9082 40.8631C28.8251 41.2623 25.5983 40.6469 25.3156 38.9171ZM37.6071 18.3093C37.3909 18.2262 34.8294 22.8667 32.4842 28.8045C35.5613 30.5343 38.3888 18.6253 37.6071 18.3093ZM40.3847 28.9875C39.7028 24.7794 46.1396 10.1926 45.7072 7.08231C45.6905 7.01578 49.2166 7.19874 48.9838 9.31108C48.7509 11.49 45.3745 20.6712 44.2435 26.6589C45.8569 22.6671 48.6678 16.9621 50.2811 17.1118C51.2126 17.1949 53.092 18.0765 53.2584 18.642C53.7241 20.2054 50.4641 27.3408 50.3976 29.7027C51.6949 28.4552 53.3249 24.5465 53.6076 23.8313C53.6409 23.7648 53.7074 23.7316 53.774 23.7316C53.907 23.7316 53.9902 23.848 53.9569 23.9644C53.5578 25.1952 51.7282 30.8337 50.9963 30.9335C49.5493 31.1331 47.1043 30.0852 46.9047 28.7712C46.6552 26.9915 49.4994 21.22 49.7821 18.4257C48.9505 18.2927 43.9441 28.3055 43.9774 30.8836C44.0772 31.3493 40.6841 30.7505 40.3847 28.9875ZM53.4081 28.7546C52.4267 25.977 54.6555 19.0245 57.167 17.4112C58.0319 16.8457 60.3771 16.9953 61.1256 17.4943C61.7743 17.9101 61.3584 18.3093 61.3584 18.3093C58.6473 17.0452 55.4539 28.8211 56.7013 29.9688C58.1484 31.2994 61.5913 20.405 59.5122 19.9726C59.5122 19.9726 60.4769 18.6087 61.3085 18.7085C64.186 19.0911 62.0071 28.871 57.982 30.7671C56.8843 31.2828 54.273 31.183 53.4081 28.7546ZM62.1235 29.1538C61.6911 26.5092 64.9677 19.0578 64.4355 17.1284C64.4188 17.0619 68.3109 16.7625 68.2443 18.8915C68.1944 20.089 66.0821 24.4468 65.7162 28.0228C66.9803 24.0975 69.8743 16.9454 71.6707 17.1118C72.6021 17.1949 74.2321 17.96 74.3984 18.5089C74.6146 19.2407 72.3859 22.7336 72.9846 24.8958C68.0281 24.6796 71.2382 19.0744 71.1717 18.4257C70.3401 18.2927 65.8825 28.2057 65.8991 30.8004C65.9158 30.9002 65.7994 30.9667 65.7162 30.9501C65.001 30.8669 62.3398 30.4844 62.1235 29.1538ZM79.3549 16.8623C74.598 16.2302 77.6251 13.5524 77.4255 11.7893C82.5817 12.621 78.9391 14.4007 79.3549 16.8623ZM72.968 29.1538C72.5023 26.609 75.9286 19.0578 75.413 17.1284C75.3964 17.0619 79.2551 16.7625 79.1886 18.8915C79.1387 20.272 76.3777 25.7607 76.6105 29.5031C77.8746 28.0893 79.3716 24.5133 79.6543 23.8313C79.6709 23.7648 79.7375 23.7316 79.8206 23.7316C79.9371 23.7316 80.0202 23.848 79.987 23.9644C79.6044 25.1952 77.7915 30.5177 76.9931 30.9002C76.1781 31.2661 73.1842 30.4012 72.968 29.1538ZM82.9143 30.8836C82.3155 31.2994 79.621 30.5676 79.0056 29.4532C78.2073 28.0228 80.2032 20.7709 82.0328 18.4257C83.4632 16.6128 86.5568 17.0619 87.2887 17.4943C87.4716 17.5941 87.5382 17.6939 87.4384 17.9767C87.3219 18.2927 87.0891 18.2262 86.7232 18.1264C84.8603 17.644 82.066 27.8564 82.249 29.9355L88.1868 17.2947C88.3864 16.7459 91.9125 17.6606 91.5799 18.3592C91.2472 19.0578 88.8189 27.3408 88.7523 29.7027C90.0497 28.4552 91.6963 24.5465 91.9791 23.8313C92.0123 23.7648 92.0789 23.7316 92.1454 23.7316C92.2618 23.7316 92.3616 23.848 92.3117 23.9644C91.9292 25.1952 90.0996 30.8337 89.3678 30.9335C87.9041 31.1331 85.4591 30.0852 85.2761 28.7712C85.1098 27.6568 86.0246 24.2139 86.8729 21.3864C85.4092 25.1786 83.247 30.6507 82.9143 30.8836Z" fill="#3C4242"/>
<path d="M1 33.626H23.4033" stroke="#333333" stroke-width="0.420324" stroke-miterlimit="10" stroke-linecap="round" stroke-linejoin="round"/>
<path d="M32.9854 33.626H92.0358" stroke="#3C4242" stroke-width="0.420324" stroke-miterlimit="10" stroke-linecap="round" stroke-linejoin="round"/>
<path d="M40.9502 41.2618C40.7866 41.2618 40.5977 41.1972 40.3818 41.0689C40.1667 40.9399 39.9378 40.7694 39.6967 40.5566C39.4555 40.3438 39.2181 40.1126 38.9838 39.8622C38.7503 39.6126 38.5345 39.3637 38.3378 39.1156C38.1412 38.8682 37.976 38.6478 37.8424 38.455L36.7624 40.7863C36.7101 40.9 36.6287 40.9806 36.5173 41.0275C36.406 41.0743 36.2854 41.1027 36.1556 41.1127C36.0257 41.1227 35.8975 41.1273 35.7715 41.1273C35.8675 40.9891 35.9666 40.8301 36.0664 40.6519C36.1671 40.4736 36.2854 40.2586 36.4229 40.0058C36.5604 39.7531 36.7217 39.4466 36.9076 39.0849C37.0934 38.7238 37.3139 38.2914 37.5705 37.789C37.8262 37.2867 38.1289 36.6967 38.4784 36.0185C38.5007 35.9785 38.5306 35.9232 38.5675 35.8518C38.6044 35.7803 38.6236 35.7143 38.6236 35.6551C38.6236 35.6006 38.6051 35.5576 38.5675 35.5253C38.5306 35.4931 38.46 35.4769 38.3563 35.4769C38.178 35.4769 38.0052 35.5253 37.8385 35.6213C37.6718 35.7174 37.5228 35.8403 37.393 35.9893C37.2632 36.1375 37.161 36.2911 37.0865 36.4494C37.012 36.6076 36.9752 36.749 36.9752 36.8726C36.9752 36.9671 36.9936 37.0508 37.0305 37.1253C36.7854 37.1253 36.6126 37.0846 36.5127 37.0032C36.4121 36.9218 36.3622 36.8212 36.3622 36.7021C36.3622 36.5339 36.4359 36.3657 36.5849 36.1974C36.7332 36.0292 36.9245 35.8741 37.1587 35.7335C37.393 35.5921 37.6381 35.48 37.8938 35.3955C38.1496 35.3118 38.3816 35.2695 38.5898 35.2695C38.7903 35.2695 38.9254 35.3064 38.9961 35.3809C39.0668 35.4554 39.1021 35.5368 39.1021 35.6259C39.1021 35.6805 39.0929 35.735 39.0745 35.7896C39.056 35.8441 39.0353 35.8963 39.013 35.9455L38.0774 37.9649C38.1811 37.8658 38.3171 37.7744 38.4838 37.6899C38.6505 37.6062 38.8348 37.5094 39.0353 37.4003C39.3694 37.2221 39.7274 37.014 40.1099 36.7766C40.4924 36.5393 40.8581 36.2888 41.2068 36.0269C41.5555 35.7642 41.8451 35.5123 42.0756 35.2695C42.1124 35.2995 42.1386 35.351 42.1539 35.4255C42.1685 35.5 42.1762 35.5568 42.1762 35.596C42.1762 35.7496 42.0817 35.9178 41.892 36.1007C41.7023 36.2835 41.4557 36.4732 41.1515 36.6683C40.8473 36.8642 40.5132 37.057 40.1491 37.2475C39.785 37.438 39.427 37.6177 39.0745 37.7859C38.7219 37.9542 38.4039 38.1001 38.122 38.2238C38.3447 38.4765 38.5621 38.7161 38.7734 38.9443C38.9846 39.1717 39.215 39.3944 39.4639 39.6126C39.7128 39.8307 40.0039 40.0535 40.338 40.2808C40.6722 40.5082 41.077 40.7532 41.5517 41.0159C41.4995 41.0805 41.418 41.1373 41.3067 41.1865C41.1953 41.2372 41.0762 41.2618 40.9502 41.2618Z" fill="#3C4242"/>
<path d="M46.9094 40.9796C46.4562 40.9796 46.1205 40.8882 45.9016 40.7046C45.6827 40.5218 45.5728 40.3013 45.5728 40.044C45.2533 40.3259 44.8861 40.5464 44.4706 40.7046C44.055 40.8628 43.6348 40.9419 43.2123 40.9419C42.7591 40.9419 42.4196 40.859 42.193 40.6931C41.9664 40.5272 41.8535 40.3228 41.8535 40.0809C41.8535 39.8581 41.9372 39.6231 42.1039 39.3757C42.2714 39.1284 42.4941 38.8956 42.7722 38.6775C43.0503 38.4601 43.3568 38.2827 43.6909 38.1467C44.025 38.0107 44.3553 37.9424 44.6826 37.9424C44.8531 37.9424 45.0113 37.9723 45.1557 38.0315C45.3009 38.0906 45.3731 38.212 45.3731 38.3956C45.3731 38.5838 45.2894 38.7604 45.1227 38.9264C44.956 39.0923 44.7363 39.2398 44.4659 39.368C44.1948 39.4971 43.8975 39.6016 43.5749 39.6837C43.2523 39.7659 42.9304 39.8159 42.6117 39.8358C42.5971 39.8858 42.5855 39.9326 42.5779 39.9772C42.5702 40.0217 42.5663 40.064 42.5663 40.1031C42.5663 40.2022 42.5925 40.2998 42.6447 40.3966C42.6962 40.4934 42.7853 40.5725 42.912 40.6339C43.038 40.6961 43.2162 40.7269 43.4466 40.7269C43.8399 40.7269 44.2301 40.6339 44.6165 40.4488C45.0021 40.2629 45.3401 40.034 45.6297 39.7621C45.6965 39.5593 45.8156 39.3565 45.9861 39.153C46.1566 38.9502 46.3632 38.7658 46.6044 38.5999C46.8456 38.434 47.1076 38.3003 47.3895 38.1989C47.6714 38.0975 47.9579 38.0468 48.2475 38.0468C48.418 38.0468 48.5762 38.0768 48.7206 38.136C48.865 38.1951 48.938 38.3165 48.938 38.5C48.938 38.7528 48.8097 38.974 48.554 39.1645C48.2982 39.355 47.9694 39.5071 47.5684 39.6215C47.1675 39.7352 46.7558 39.8074 46.3325 39.8366C46.3179 39.8865 46.3064 39.9334 46.2987 39.9779C46.291 40.0225 46.2872 40.0647 46.2872 40.1039C46.2872 40.203 46.311 40.3044 46.3594 40.4081C46.4078 40.5118 46.4931 40.5971 46.6152 40.6639C46.7381 40.7307 46.914 40.7637 47.1444 40.7637C47.464 40.7637 47.7827 40.7008 48.1023 40.5748C48.4218 40.4488 48.7183 40.2829 48.9933 40.077C49.2683 39.8719 49.498 39.6499 49.6839 39.4126L49.8175 39.4794C49.6171 39.7767 49.359 40.0379 49.0433 40.2629C48.7276 40.488 48.3865 40.6639 48.0186 40.7899C47.6499 40.9166 47.2804 40.9796 46.9094 40.9796ZM42.6662 39.6945C42.8667 39.6499 43.0933 39.5847 43.3452 39.4979C43.598 39.4111 43.8407 39.3089 44.075 39.1898C44.3092 39.0708 44.502 38.9402 44.6541 38.7965C44.8062 38.6529 44.8823 38.5024 44.8823 38.3434C44.8823 38.2888 44.8677 38.2466 44.8377 38.2174C44.8078 38.1874 44.7448 38.1728 44.6488 38.1728C44.4705 38.1728 44.2808 38.2189 44.0803 38.3103C43.8799 38.4017 43.6871 38.5216 43.5012 38.6706C43.3153 38.8188 43.1486 38.9824 42.9996 39.1606C42.8513 39.3381 42.7399 39.5163 42.6662 39.6945ZM46.3863 39.6945C46.5868 39.6499 46.8057 39.5908 47.0438 39.5163C47.2812 39.4418 47.5078 39.3542 47.7236 39.2528C47.9387 39.1514 48.1169 39.0354 48.2582 38.9041C48.3988 38.7727 48.4695 38.6283 48.4695 38.4701C48.4695 38.4156 48.451 38.3695 48.4134 38.3326C48.3765 38.2957 48.3097 38.2773 48.2129 38.2773C47.9755 38.2773 47.7359 38.3464 47.4947 38.4855C47.2535 38.6237 47.0346 38.8012 46.8372 39.0162C46.6405 39.2305 46.49 39.4571 46.3863 39.6945Z" fill="#3C4242"/>
<path d="M48.747 42.6949C48.6879 42.6949 48.6303 42.6742 48.5742 42.632C48.5181 42.5897 48.4759 42.5452 48.4459 42.4983C48.416 42.4514 48.4014 42.423 48.4014 42.413C48.5051 42.1703 48.6072 41.9537 48.7079 41.7632C48.8085 41.5727 48.9083 41.3768 49.009 41.1763C49.1088 40.9759 49.2079 40.7408 49.3039 40.4712C49.4007 40.2016 49.5006 39.8659 49.605 39.4649C49.7087 39.064 49.8132 38.5662 49.9169 37.9724C49.9246 37.9279 49.9392 37.8956 49.9614 37.8757C49.9837 37.8557 50.039 37.8457 50.1281 37.8457C50.3209 37.8457 50.4584 37.8818 50.5406 37.9532C50.622 38.0247 50.6628 38.103 50.6628 38.1868C50.6628 38.2559 50.6405 38.3796 50.5959 38.5578C50.5514 38.736 50.4884 38.9464 50.407 39.1892C50.5329 39.0256 50.6912 38.8596 50.8801 38.6914C51.0691 38.5232 51.2865 38.3819 51.5315 38.2682C51.7766 38.1545 52.0439 38.0977 52.3334 38.0977C52.6599 38.0977 52.9295 38.176 53.1408 38.3312C53.352 38.4871 53.458 38.6914 53.458 38.9441C53.458 39.1369 53.3927 39.3413 53.2629 39.5563C53.1331 39.7714 52.951 39.975 52.7175 40.1655C52.484 40.356 52.2067 40.5111 51.8879 40.6294C51.5684 40.7485 51.2158 40.8076 50.8302 40.8076C50.6366 40.8076 50.4815 40.793 50.3624 40.7631C50.2434 40.7331 50.1842 40.7039 50.1842 40.674C50.1842 40.654 50.2119 40.6433 50.2679 40.6402C50.324 40.6379 50.3885 40.6363 50.463 40.6363C50.7603 40.6363 51.0437 40.5879 51.3149 40.4912C51.5861 40.3944 51.8288 40.2669 52.0446 40.1086C52.2597 39.9504 52.4287 39.7745 52.5516 39.5817C52.6737 39.3889 52.7352 39.1984 52.7352 39.0102C52.7352 38.852 52.6853 38.7168 52.5846 38.6054C52.4848 38.494 52.3227 38.4387 52.0999 38.4387C51.9071 38.4387 51.7159 38.4794 51.5261 38.5608C51.3364 38.6423 51.1582 38.7467 50.9915 38.8727C50.8241 38.9987 50.6758 39.13 50.546 39.266C50.4162 39.4019 50.3179 39.5248 50.251 39.6332C50.1174 40.0042 49.9837 40.3621 49.8501 40.7062C49.7164 41.0504 49.5881 41.3622 49.466 41.6418C49.3431 41.9214 49.2325 42.1503 49.1319 42.3285C49.032 42.5067 48.9483 42.6158 48.8815 42.655C48.843 42.6826 48.7985 42.6949 48.747 42.6949Z" fill="#3C4242"/>
<path d="M57.5018 40.8083C57.2122 40.8083 56.9963 40.7476 56.8558 40.6263C56.7144 40.5049 56.6445 40.3574 56.6445 40.1846C56.6445 40.0709 56.676 39.9273 56.739 39.7537C56.802 39.5808 56.8857 39.3988 56.9894 39.2083C57.0931 39.0178 57.2137 38.838 57.3512 38.6698C57.4887 38.5016 57.6354 38.3641 57.7914 38.2573C57.9473 38.1513 58.0994 38.0976 58.2484 38.0976C58.3152 38.0976 58.3728 38.1114 58.4212 38.1383C58.4696 38.1652 58.4934 38.2066 58.4934 38.2604C58.4934 38.3196 58.4358 38.4163 58.3206 38.55C58.2054 38.6836 58.0702 38.8373 57.9143 39.0101C57.7583 39.1837 57.6231 39.365 57.5079 39.5555C57.3927 39.746 57.3351 39.928 57.3351 40.1016C57.3351 40.2798 57.3796 40.3989 57.4687 40.458C57.5578 40.5172 57.6953 40.5471 57.8812 40.5471C58.1339 40.5471 58.4028 40.4634 58.6885 40.2944C58.9743 40.1262 59.2769 39.832 59.5965 39.4111L59.6963 39.4856C59.4813 39.9111 59.1709 40.2383 58.7661 40.4657C58.3605 40.6946 57.9396 40.8083 57.5018 40.8083ZM58.8376 37.4078C58.7185 37.4078 58.6133 37.3878 58.5203 37.3486C58.4274 37.3087 58.3813 37.2472 58.3813 37.1627C58.3813 37.059 58.4719 36.9684 58.654 36.8916C58.836 36.8148 59.0158 36.7764 59.194 36.7764C59.3053 36.7764 59.3945 36.794 59.4613 36.8286C59.5281 36.8632 59.5611 36.9231 59.5611 37.0068C59.5611 37.1005 59.4851 37.1912 59.333 37.278C59.1817 37.3648 59.0165 37.4078 58.8376 37.4078Z" fill="#3C4242"/>
<path d="M60.3298 40.9573C60.0102 40.9573 59.7652 40.8951 59.5947 40.7715C59.4241 40.6478 59.3389 40.465 59.3389 40.2222C59.3389 40.0049 59.4003 39.736 59.5225 39.4165C59.6446 39.0969 59.799 38.7697 59.9849 38.4325C59.9104 38.4225 59.8405 38.414 59.7736 38.4064C59.7068 38.3987 59.6438 38.3879 59.5847 38.3733V38.2397C59.6438 38.2443 59.7145 38.2497 59.7959 38.2543C59.8773 38.2589 59.9703 38.2643 60.074 38.2689C60.2299 38.0016 60.3974 37.7427 60.5748 37.4931C60.753 37.2434 60.9297 37.0207 61.104 36.8248C61.2784 36.6297 61.4459 36.473 61.6056 36.357C61.7654 36.241 61.9006 36.1826 62.012 36.1826C62.0711 36.1826 62.1249 36.1964 62.1733 36.2233C62.2217 36.2502 62.2455 36.2917 62.2455 36.3455C62.2455 36.43 62.1679 36.5667 62.012 36.7579C61.856 36.9484 61.6632 37.175 61.4328 37.437C61.2024 37.6997 60.9796 37.9839 60.7645 38.2911C60.8314 38.2911 60.8997 38.2911 60.9704 38.2911C61.0411 38.2911 61.1094 38.2911 61.1762 38.2911C61.4213 38.2911 61.6794 38.2888 61.9505 38.2835C62.2217 38.2789 62.4944 38.2658 62.7694 38.2466V38.3802C62.3607 38.4102 61.9951 38.4325 61.6725 38.4471C61.3498 38.4617 61.0618 38.4694 60.8091 38.4694C60.7791 38.4694 60.7515 38.4694 60.7254 38.4694C60.6992 38.4694 60.6716 38.4694 60.6416 38.4694C60.4711 38.7321 60.3259 39.0017 60.2076 39.279C60.0886 39.5563 60.0294 39.8259 60.0294 40.0886C60.0294 40.3014 60.0778 40.4534 60.1738 40.5449C60.2699 40.6363 60.4296 40.6823 60.6531 40.6823C61.0395 40.6823 61.4182 40.5687 61.7892 40.3405C62.1602 40.1132 62.4867 39.8036 62.7694 39.4126L62.9138 39.4871C62.7356 39.7644 62.5105 40.0141 62.2401 40.2368C61.969 40.4596 61.6702 40.6355 61.3437 40.7638C61.0165 40.8928 60.6793 40.9573 60.3298 40.9573Z" fill="#3C4242"/>
<path d="M66.6449 41.031C66.2885 41.031 65.9912 40.9519 65.7539 40.7937C65.5165 40.6354 65.3975 40.3981 65.3975 40.0808C65.3975 39.8335 65.4697 39.5923 65.6148 39.3565C65.7593 39.1214 65.9505 38.9102 66.1886 38.722C66.426 38.5338 66.6895 38.384 66.9791 38.2726C67.2686 38.1613 67.5544 38.106 67.8371 38.106C68.1412 38.106 68.3494 38.1651 68.4608 38.2842C68.5722 38.4032 68.6275 38.5269 68.6275 38.6552C68.6275 38.7988 68.5775 38.9248 68.4769 39.0339C68.3771 39.1429 68.2411 39.1975 68.0706 39.1975C67.9446 39.1975 67.8371 39.1606 67.7472 39.0861C67.8586 39.0469 67.9554 38.9663 68.0368 38.8449C68.1182 38.7235 68.1597 38.6083 68.1597 38.4992C68.1597 38.4401 68.1428 38.394 68.1097 38.3617C68.0759 38.3295 68.0114 38.3134 67.9146 38.3134C67.7142 38.3134 67.5083 38.3725 67.2963 38.4916C67.0851 38.6106 66.8876 38.7635 66.7064 38.9517C66.5243 39.1399 66.3761 39.338 66.2608 39.5454C66.1456 39.7536 66.088 39.9487 66.088 40.1323C66.088 40.2859 66.1441 40.4265 66.2555 40.5555C66.3669 40.6838 66.5819 40.7483 66.9015 40.7483C67.1987 40.7483 67.4975 40.6938 67.7979 40.5847C68.0982 40.4757 68.3786 40.3197 68.639 40.1169C68.8986 39.9141 69.1068 39.676 69.2627 39.4041L69.4071 39.4786C69.2366 39.7759 69.0023 40.0417 68.7058 40.2767C68.4085 40.5118 68.0821 40.6961 67.7257 40.8298C67.3685 40.9642 67.0082 41.031 66.6449 41.031Z" fill="#3C4242"/>
<path d="M69.975 40.8383C69.6555 40.8383 69.4273 40.7653 69.2898 40.6194C69.1523 40.4734 69.084 40.2914 69.084 40.074C69.084 39.8367 69.1508 39.554 69.2845 39.2275C69.4181 38.9011 69.5948 38.5569 69.8137 38.1951C70.0326 37.8341 70.2723 37.4816 70.5319 37.1367C70.7915 36.7925 71.0512 36.4799 71.3116 36.1972C71.5712 35.9153 71.8109 35.6895 72.0298 35.5213C72.2487 35.353 72.4215 35.2686 72.5475 35.2686C72.6289 35.2686 72.6958 35.2993 72.748 35.3615C72.8002 35.4237 72.8409 35.4975 72.8709 35.5843C72.9001 35.6711 72.9154 35.7486 72.9154 35.8178C72.9154 35.9514 72.8655 36.1258 72.7649 36.3416C72.665 36.5567 72.5237 36.7971 72.3416 37.0621C72.1596 37.3272 71.9445 37.5945 71.6956 37.8641C71.4468 38.1337 71.1756 38.3926 70.883 38.6399C70.5895 38.8872 70.28 39.1 69.9527 39.2782C69.9082 39.4119 69.8729 39.5417 69.8467 39.6684C69.8206 39.7944 69.8076 39.915 69.8076 40.0287C69.8076 40.2215 69.8483 40.3651 69.9297 40.4596C70.0111 40.5533 70.134 40.6009 70.2976 40.6009C70.4981 40.6009 70.6971 40.5418 70.8937 40.4227C71.0904 40.3037 71.2762 40.1539 71.4506 39.9734C71.625 39.7929 71.7755 39.6062 71.9015 39.4126L72.0682 39.4718C71.7709 39.8927 71.4483 40.2253 71.0988 40.4704C70.7508 40.7162 70.376 40.8383 69.975 40.8383ZM70.0534 39.0263C70.313 38.8527 70.5657 38.6537 70.8107 38.4287C71.0558 38.2036 71.2839 37.9693 71.4959 37.7274C71.7079 37.4846 71.8954 37.2496 72.0582 37.0222C72.221 36.7948 72.3478 36.5905 72.4369 36.41C72.526 36.2295 72.5705 36.0897 72.5705 35.9906C72.5705 35.9414 72.5613 35.9092 72.5429 35.8938C72.5245 35.8792 72.5076 35.8715 72.493 35.8715C72.4338 35.8715 72.3317 35.9345 72.1865 36.0605C72.0421 36.1865 71.8731 36.3562 71.6795 36.569C71.4867 36.7818 71.2901 37.0245 71.0896 37.2964C70.8891 37.5684 70.6978 37.8533 70.5158 38.1506C70.333 38.4471 70.1793 38.7398 70.0534 39.0263Z" fill="#3C4242"/>
<path d="M72.2139 40.9642C71.9834 40.9642 71.7883 40.9135 71.6293 40.8121C71.4695 40.7107 71.3896 40.5563 71.3896 40.3481C71.3896 40.1699 71.4488 39.9779 71.5679 39.7728C71.6861 39.5677 71.8498 39.3642 72.0579 39.1637C72.2661 38.9632 72.5019 38.7804 72.7654 38.6145C73.0289 38.4485 73.3069 38.3164 73.6011 38.2173C73.8945 38.1183 74.1857 38.0691 74.4752 38.0691C74.7648 38.0691 75.006 38.1198 75.1988 38.2212C75.3916 38.3226 75.4884 38.4578 75.4884 38.626C75.4884 38.7497 75.4385 38.8342 75.3379 38.8787C75.2372 38.9233 75.1059 38.9455 74.9423 38.9455C74.9569 38.9056 74.9699 38.8626 74.9814 38.8157C74.993 38.7689 74.9983 38.7258 74.9983 38.6859C74.9983 38.5722 74.9576 38.4747 74.8762 38.3925C74.794 38.3111 74.6535 38.2703 74.453 38.2703C74.2448 38.2703 74.0336 38.3187 73.8177 38.4148C73.6026 38.5115 73.3945 38.6398 73.194 38.8011C72.9935 38.9624 72.8153 39.1368 72.6594 39.325C72.5034 39.5132 72.3813 39.6991 72.2914 39.8819C72.2023 40.0647 72.1578 40.2283 72.1578 40.372C72.1578 40.5648 72.2576 40.6615 72.4589 40.6615C72.6294 40.6615 72.8153 40.6085 73.0158 40.5018C73.2163 40.3958 73.4221 40.259 73.6341 40.0931C73.8454 39.9272 74.0482 39.7551 74.241 39.5769C74.4338 39.3987 74.6051 39.2351 74.7533 39.0869C74.7825 39.0569 74.8017 39.0423 74.8086 39.0423C74.8532 39.0469 74.9108 39.0569 74.9814 39.0723C75.0521 39.0869 75.1136 39.1068 75.165 39.1314C75.2173 39.156 75.2434 39.1883 75.2434 39.2282C75.2434 39.2728 75.2096 39.3334 75.1428 39.4103C75.0759 39.4871 75.0014 39.5746 74.92 39.6737C74.8378 39.7728 74.7641 39.8734 74.6972 39.9748C74.6304 40.0762 74.5974 40.1715 74.5974 40.2606C74.5974 40.3351 74.6266 40.4081 74.6865 40.4795C74.7456 40.5517 74.8424 40.587 74.9761 40.587C75.1766 40.587 75.44 40.4895 75.7665 40.2936C76.0929 40.0985 76.424 39.8051 76.7581 39.4133L76.8695 39.4878C76.7136 39.7551 76.5131 39.9902 76.2681 40.193C76.023 40.3958 75.7611 40.5548 75.483 40.6685C75.205 40.7821 74.9315 40.839 74.6642 40.839C74.3892 40.839 74.1872 40.7844 74.0574 40.6754C73.9276 40.5663 73.8623 40.448 73.8623 40.319C73.8623 40.289 73.8661 40.256 73.8738 40.2191C73.8807 40.1822 73.8884 40.1438 73.8961 40.1039C73.5765 40.3912 73.2854 40.6062 73.0219 40.7499C72.7577 40.8928 72.4881 40.9642 72.2139 40.9642Z" fill="#3C4242"/>
<path d="M77.7051 40.9943C77.3564 40.9943 77.0799 40.9436 76.8755 40.8422C76.6712 40.7408 76.5268 40.6156 76.4408 40.4674C76.3555 40.3191 76.3125 40.1701 76.3125 40.0219C76.3125 39.8736 76.3425 39.7592 76.4016 39.68C76.4615 39.6009 76.5337 39.5418 76.619 39.5018C76.7042 39.4619 76.7857 39.4327 76.864 39.4127C76.9424 39.3928 76.9954 39.3728 77.0253 39.3536C77.2481 39.19 77.4524 39.0195 77.6383 38.8412C77.8242 38.663 77.987 38.4748 78.1284 38.2767V38.1876C78.1284 38.0047 78.1745 37.8742 78.2674 37.7973C78.3603 37.7205 78.4587 37.6821 78.5624 37.6821C78.6215 37.6821 78.6661 37.6921 78.696 37.7121C78.726 37.7321 78.7406 37.7543 78.7406 37.7789C78.7406 37.8035 78.7298 37.8434 78.7075 37.898C78.6853 37.9525 78.6737 38.0216 78.6737 38.1061C78.6737 38.2698 78.7221 38.4464 78.8182 38.6369C78.9149 38.8274 79.011 39.0279 79.1077 39.2384C79.2038 39.4488 79.2522 39.6678 79.2522 39.8951C79.2522 39.9596 79.2468 40.0226 79.2353 40.0841C79.2245 40.1463 79.2076 40.2039 79.1853 40.2585C79.445 40.2285 79.69 40.1509 79.9204 40.0249C80.1509 39.899 80.3736 39.6969 80.5887 39.4196L80.6886 39.4942C80.5472 39.7661 80.336 39.9727 80.0541 40.114C79.7722 40.2554 79.4634 40.3429 79.1292 40.3775C79.0102 40.5903 78.8228 40.7462 78.567 40.8453C78.312 40.9452 78.0239 40.9943 77.7051 40.9943ZM77.7274 40.7347C77.8165 40.7347 77.9356 40.7147 78.0838 40.6756C78.2321 40.6356 78.3473 40.5342 78.4295 40.3714C78.1176 40.3322 77.8411 40.25 77.5999 40.1263C77.3587 40.0027 77.1782 39.879 77.0599 39.7553C76.8963 39.7607 76.8149 39.8467 76.8149 40.015C76.8149 40.1932 76.8947 40.3575 77.0545 40.5089C77.2128 40.6586 77.4378 40.7347 77.7274 40.7347ZM78.4848 40.2515C78.4994 40.2024 78.5109 40.1501 78.5178 40.0956C78.5255 40.0411 78.5293 39.9765 78.5293 39.9028C78.5293 39.6701 78.4863 39.4389 78.4011 39.2084C78.3158 38.978 78.2436 38.7614 78.1837 38.5586C78.0131 38.7468 77.8326 38.9265 77.6437 39.097C77.4547 39.2676 77.2742 39.4104 77.1037 39.5241C77.2151 39.6824 77.3879 39.8314 77.6214 39.9696C77.8557 40.1087 78.143 40.2024 78.4848 40.2515Z" fill="#3C4242"/>
<path d="M81.5469 40.9943C81.1982 40.9943 80.9217 40.9436 80.7173 40.8422C80.513 40.7408 80.3686 40.6156 80.2826 40.4674C80.1973 40.3191 80.1543 40.1701 80.1543 40.0219C80.1543 39.8736 80.1843 39.7592 80.2434 39.68C80.3033 39.6009 80.3755 39.5418 80.4608 39.5018C80.546 39.4619 80.6275 39.4327 80.7058 39.4127C80.7842 39.3928 80.8372 39.3728 80.8671 39.3536C81.0899 39.19 81.2942 39.0195 81.4801 38.8412C81.666 38.663 81.8288 38.4748 81.9702 38.2767V38.1876C81.9702 38.0047 82.0163 37.8742 82.1092 37.7973C82.2021 37.7205 82.3005 37.6821 82.4042 37.6821C82.4633 37.6821 82.5079 37.6921 82.5378 37.7121C82.5678 37.7321 82.5824 37.7543 82.5824 37.7789C82.5824 37.8035 82.5716 37.8434 82.5493 37.898C82.5271 37.9525 82.5155 38.0216 82.5155 38.1061C82.5155 38.2698 82.5639 38.4464 82.66 38.6369C82.7567 38.8274 82.8528 39.0279 82.9495 39.2384C83.0456 39.4488 83.0939 39.6678 83.0939 39.8951C83.0939 39.9596 83.0886 40.0226 83.077 40.0841C83.0663 40.1463 83.0494 40.2039 83.0271 40.2585C83.2868 40.2285 83.5318 40.1509 83.7622 40.0249C83.9927 39.899 84.2154 39.6969 84.4305 39.4196L84.5304 39.4942C84.389 39.7661 84.1778 39.9727 83.8959 40.114C83.614 40.2554 83.3052 40.3429 82.971 40.3775C82.852 40.5903 82.6646 40.7462 82.4088 40.8453C82.1545 40.9452 81.8665 40.9943 81.5469 40.9943ZM81.5692 40.7347C81.6583 40.7347 81.7774 40.7147 81.9256 40.6756C82.0739 40.6356 82.1891 40.5342 82.2713 40.3714C81.9594 40.3322 81.6829 40.25 81.4417 40.1263C81.2005 40.0027 81.02 39.879 80.9017 39.7553C80.7381 39.7607 80.6567 39.8467 80.6567 40.015C80.6567 40.1932 80.7365 40.3575 80.8963 40.5089C81.0553 40.6586 81.2796 40.7347 81.5692 40.7347ZM82.3266 40.2515C82.3412 40.2024 82.3527 40.1501 82.3596 40.0956C82.3673 40.0411 82.3711 39.9765 82.3711 39.9028C82.3711 39.6701 82.3281 39.4389 82.2429 39.2084C82.1576 38.978 82.0854 38.7614 82.0255 38.5586C81.8549 38.7468 81.6744 38.9265 81.4855 39.097C81.2965 39.2676 81.116 39.4104 80.9455 39.5241C81.0569 39.6824 81.2297 39.8314 81.4632 39.9696C81.6975 40.1087 81.9855 40.2024 82.3266 40.2515Z" fill="#3C4242"/>
<path d="M84.7001 42.6948C84.5142 42.6948 84.3514 42.6617 84.21 42.5949C84.0687 42.5281 83.998 42.4305 83.998 42.3015C83.998 42.1432 84.058 42.0019 84.1762 41.8782C84.2945 41.7546 84.4543 41.6409 84.6556 41.5364C84.856 41.4327 85.0857 41.3336 85.3461 41.2392C85.6057 41.1454 85.8769 41.051 86.1588 40.9572C86.2625 40.7744 86.3685 40.5701 86.476 40.345C86.5836 40.12 86.6857 39.8711 86.7825 39.5992C86.5452 39.8565 86.2909 40.0777 86.0198 40.2636C85.7486 40.4495 85.4606 40.5417 85.1564 40.5417C85.0151 40.5417 84.876 40.5209 84.7385 40.4787C84.601 40.4365 84.4881 40.3712 84.399 40.2821C84.3099 40.193 84.2654 40.0793 84.2654 39.9402C84.2654 39.802 84.3007 39.6407 84.3714 39.4578C84.442 39.275 84.5288 39.0968 84.6333 38.9232C84.737 38.7504 84.8445 38.6068 84.9567 38.4923C85.0688 38.3778 85.1648 38.3218 85.2463 38.3218C85.2762 38.3218 85.33 38.3295 85.4076 38.3441C85.4859 38.3586 85.5597 38.3802 85.6303 38.407C85.701 38.4347 85.7363 38.4631 85.7363 38.4923C85.6695 38.5568 85.595 38.6482 85.5136 38.7673C85.4314 38.8864 85.3523 39.0185 85.2739 39.1644C85.1963 39.3104 85.131 39.4525 85.0788 39.5915C85.0266 39.7298 85.0012 39.8488 85.0012 39.9479C85.0012 40.037 85.0304 40.1085 85.0903 40.163C85.1495 40.2175 85.2539 40.2444 85.4022 40.2444C85.5428 40.2444 85.701 40.1991 85.8754 40.1069C86.0497 40.0155 86.2241 39.898 86.3992 39.7544C86.5736 39.6107 86.7349 39.4571 86.8839 39.2942C86.9062 39.2397 86.9262 39.1844 86.9454 39.1275C86.9638 39.0707 86.9807 39.0123 86.9953 38.9532C87.0176 38.884 87.0714 38.8034 87.1566 38.712C87.2419 38.6206 87.3778 38.5745 87.563 38.5745C87.5998 38.5745 87.6367 38.576 87.6743 38.5783C87.7112 38.5806 87.7519 38.5868 87.7965 38.5968C87.7965 38.6759 87.7611 38.8234 87.6905 39.0384C87.6198 39.2535 87.5192 39.5055 87.3894 39.792C87.2595 40.0793 87.1052 40.3735 86.9269 40.6753C87.2757 40.5862 87.6175 40.4388 87.9516 40.2337C88.2858 40.0286 88.5569 39.7544 88.7643 39.4133L88.9087 39.4878C88.7973 39.7252 88.6284 39.9318 88.4018 40.1077C88.1752 40.2836 87.9209 40.4341 87.639 40.5609C87.3571 40.6869 87.0783 40.7921 86.8033 40.8766C86.6105 41.1931 86.4008 41.4903 86.1742 41.7676C85.9476 42.0449 85.7102 42.2692 85.4613 42.4397C85.214 42.6095 84.9597 42.6948 84.7001 42.6948ZM84.644 42.4566C84.7554 42.4566 84.9429 42.3591 85.2063 42.1632C85.4698 41.9673 85.7502 41.6248 86.0474 41.1347C85.7432 41.2438 85.4606 41.3513 85.2009 41.4581C84.9413 41.5641 84.7331 41.6793 84.5772 41.8037C84.4213 41.9274 84.3437 42.071 84.3437 42.2347C84.3437 42.2746 84.366 42.3215 84.4105 42.376C84.4551 42.4298 84.5327 42.4566 84.644 42.4566Z" fill="#3C4242"/>
<path d="M88.998 40.69C88.9012 40.69 88.8183 40.6738 88.7476 40.6416C88.6769 40.6093 88.6416 40.5586 88.6416 40.4895C88.6416 40.4349 88.6746 40.3842 88.7415 40.3374C88.8083 40.2905 88.892 40.2529 88.9919 40.226C89.0917 40.1991 89.1901 40.1853 89.2868 40.1853C89.3759 40.1853 89.4466 40.1976 89.4981 40.2222C89.5495 40.2468 89.5757 40.2944 89.5757 40.3635C89.5757 40.4134 89.548 40.4626 89.4919 40.5118C89.4358 40.5609 89.3636 40.6032 89.2745 40.6377C89.1854 40.6723 89.0948 40.69 88.998 40.69Z" fill="#3C4242"/>
</svg>
