<svg width="24" height="45" viewBox="0 0 24 45" fill="none" xmlns="http://www.w3.org/2000/svg">
<path fill-rule="evenodd" clip-rule="evenodd" d="M0.565715 0.69834C0.724052 0.540513 0.912151 0.415294 1.11924 0.329856C1.32632 0.244418 1.54833 0.200439 1.77253 0.200439C1.99674 0.200439 2.21874 0.244418 2.42583 0.329856C2.63292 0.415294 2.82101 0.540513 2.97935 0.69834L23.4339 21.0355C23.5926 21.1929 23.7186 21.3799 23.8045 21.5858C23.8904 21.7917 23.9347 22.0125 23.9347 22.2354C23.9347 22.4583 23.8904 22.679 23.8045 22.8849C23.7186 23.0908 23.5926 23.2779 23.4339 23.4353L2.97935 43.7724C2.65928 44.0907 2.22518 44.2695 1.77253 44.2695C1.31989 44.2695 0.885783 44.0907 0.565715 43.7724C0.245647 43.4542 0.0658339 43.0226 0.0658339 42.5726C0.0658339 42.1225 0.245647 41.6909 0.565715 41.3727L19.8169 22.2354L0.565715 3.09813C0.406976 2.9407 0.281034 2.75368 0.195103 2.54778C0.109172 2.34188 0.0649414 2.12115 0.0649414 1.89823C0.0649414 1.67531 0.109172 1.45458 0.195103 1.24869C0.281034 1.04279 0.406976 0.855769 0.565715 0.69834Z" fill="white"/>
</svg>
